<?xml version="1.0" encoding="UTF-8" standalone="no"?>
<!DOCTYPE svg PUBLIC "-//W3C//DTD SVG 1.1//EN" "http://www.w3.org/Graphics/SVG/1.1/DTD/svg11.dtd">
<svg width="100%" height="100%" viewBox="0 0 1000 1000" version="1.1" xmlns="http://www.w3.org/2000/svg" xmlns:xlink="http://www.w3.org/1999/xlink" xml:space="preserve" xmlns:serif="http://www.serif.com/" style="fill-rule:evenodd;clip-rule:evenodd;stroke-linejoin:round;stroke-miterlimit:2;">
    <g transform="matrix(2.42343,0,0,0.968013,-140.324,388.2)">
        <g transform="matrix(53.28,0,0,120.169,114.281,379.676)">
            <path d="M0.574,0L0.493,0L0.148,-0.581L0.149,-0.537C0.15,-0.52 0.151,-0.506 0.151,-0.495L0.151,0L0.083,0L0.083,-0.667L0.188,-0.667L0.51,-0.123L0.509,-0.17C0.509,-0.188 0.508,-0.204 0.508,-0.218L0.508,-0.667L0.574,-0.667L0.574,0Z" style="fill-rule:nonzero;"/>
        </g>
        <g transform="matrix(53.28,0,0,120.169,168.479,379.676)">
            <path d="M0.798,-0.667L0.638,0L0.554,0L0.409,-0.517L0.274,0L0.188,0L0.019,-0.667L0.106,-0.667L0.239,-0.126L0.38,-0.667L0.448,-0.667L0.601,-0.126L0.725,-0.667L0.798,-0.667Z" style="fill-rule:nonzero;"/>
        </g>
        <g transform="matrix(53.28,0,0,120.169,229.779,379.676)">
            <path d="M0.532,0L0.447,0L0.38,-0.195L0.133,-0.195L0.073,0L0.003,0L0.22,-0.667L0.314,-0.667L0.532,0ZM0.362,-0.257L0.259,-0.578L0.156,-0.257L0.362,-0.257Z" style="fill-rule:nonzero;"/>
        </g>
        <g transform="matrix(53.28,0,0,120.169,275.157,379.676)">
            <path d="M0.533,-0.667L0.309,0L0.228,0L0.003,-0.667L0.091,-0.667L0.277,-0.117L0.461,-0.667L0.533,-0.667Z" style="fill-rule:nonzero;"/>
        </g>
        <g transform="matrix(53.28,0,0,120.169,322.929,379.676)">
            <path d="M0.515,-0.073L0.515,0L0.083,0L0.083,-0.667L0.505,-0.667L0.505,-0.593L0.167,-0.593L0.167,-0.381L0.436,-0.381L0.436,-0.313L0.167,-0.313L0.167,-0.073L0.515,-0.073Z" style="fill-rule:nonzero;"/>
        </g>
        <g transform="matrix(53.28,0,0,120.169,371.3,379.676)">
            <path d="M0.01,-0.176L0.085,-0.193C0.116,-0.103 0.181,-0.057 0.282,-0.057C0.335,-0.057 0.375,-0.068 0.401,-0.091C0.428,-0.113 0.441,-0.143 0.441,-0.181C0.441,-0.209 0.431,-0.232 0.411,-0.249C0.391,-0.267 0.367,-0.278 0.34,-0.285L0.207,-0.318C0.173,-0.327 0.144,-0.337 0.122,-0.35C0.1,-0.362 0.082,-0.382 0.066,-0.408C0.051,-0.434 0.043,-0.464 0.043,-0.497C0.043,-0.553 0.064,-0.597 0.106,-0.631C0.148,-0.664 0.202,-0.68 0.268,-0.68C0.389,-0.68 0.469,-0.625 0.507,-0.516L0.431,-0.493C0.422,-0.532 0.402,-0.562 0.369,-0.582C0.337,-0.602 0.302,-0.612 0.265,-0.612C0.229,-0.612 0.196,-0.602 0.168,-0.583C0.139,-0.564 0.125,-0.536 0.125,-0.501C0.125,-0.452 0.161,-0.418 0.233,-0.401L0.358,-0.372C0.472,-0.344 0.529,-0.283 0.529,-0.188C0.529,-0.13 0.507,-0.082 0.465,-0.044C0.422,-0.005 0.361,0.014 0.284,0.014C0.146,0.014 0.055,-0.05 0.01,-0.176Z" style="fill-rule:nonzero;"/>
        </g>
    </g>
    <g transform="matrix(3.65719,0,0,2.42343,-2447.91,-1940.19)">
        <g transform="matrix(177.737,0,0,212.875,625.283,1036.62)">
            <path d="M0.869,-0.632C0.907,-0.737 0.968,-0.65 0.952,-0.587L0.759,-0.05C0.743,-0.007 0.717,0.015 0.679,0.015C0.628,0.015 0.598,-0.007 0.589,-0.051L0.508,-0.435L0.454,-0.278C0.434,-0.218 0.346,-0.239 0.376,-0.329L0.47,-0.597C0.483,-0.635 0.494,-0.659 0.503,-0.67C0.518,-0.689 0.542,-0.699 0.575,-0.699C0.624,-0.699 0.656,-0.665 0.67,-0.595L0.737,-0.261L0.869,-0.632Z" style="fill:rgb(15,8,100);fill-rule:nonzero;"/>
            <clipPath id="_clip1">
                <path d="M0.869,-0.632C0.907,-0.737 0.968,-0.65 0.952,-0.587L0.759,-0.05C0.743,-0.007 0.717,0.015 0.679,0.015C0.628,0.015 0.598,-0.007 0.589,-0.051L0.508,-0.435L0.454,-0.278C0.434,-0.218 0.346,-0.239 0.376,-0.329L0.47,-0.597C0.483,-0.635 0.494,-0.659 0.503,-0.67C0.518,-0.689 0.542,-0.699 0.575,-0.699C0.624,-0.699 0.656,-0.665 0.67,-0.595L0.737,-0.261L0.869,-0.632Z" clip-rule="nonzero"/>
            </clipPath>
            <g clip-path="url(#_clip1)">
                <g transform="matrix(0.00228552,-0.0064292,0.00340252,0.00192031,-5.87237,12.3969)">
                    <rect x="2143.99" y="516.79" width="32.107" height="27.531" style="fill:url(#_Linear2);"/>
                </g>
            </g>
        </g>
        <g transform="matrix(0.97959,0,0,1.4783,-371.832,689.704)">
            <path d="M1221.46,196.448L1242.79,148.681C1245.1,143.243 1247.08,139.751 1248.73,138.204C1251.5,135.392 1255.88,133.985 1261.84,133.985C1270.76,133.985 1276.49,138.977 1279.03,148.962L1291.16,197.056L1304.1,168.108C1308.71,157.866 1323.24,164.112 1319.16,174.577L1295.15,227.501C1292.38,233.735 1287.56,236.852 1280.71,236.852C1271.5,236.852 1266.03,233.688 1264.32,227.36L1250.62,172.35L1225.6,227.501C1222.82,233.735 1218.01,236.852 1211.16,236.852C1201.94,236.852 1196.48,233.688 1194.77,227.36L1180.99,172.024L1173.8,147.616C1176.11,142.178 1177.52,139.751 1179.18,138.204C1181.95,135.392 1186.32,133.985 1192.29,133.985C1201.21,133.985 1206.93,138.977 1209.48,148.962L1221.46,196.448Z" style="fill:rgb(173,11,191);fill-rule:nonzero;"/>
        </g>
    </g>
    <defs>
        <linearGradient id="_Linear2" x1="0" y1="0" x2="1" y2="0" gradientUnits="userSpaceOnUse" gradientTransform="matrix(32.5311,2.69723,-1.79859,48.7848,2139.64,519.713)"><stop offset="0" style="stop-color:black;stop-opacity:0"/><stop offset="1" style="stop-color:black;stop-opacity:0.75"/></linearGradient>
    </defs>
</svg>
